<svg id="Layer_2" data-name="Layer 2" xmlns="http://www.w3.org/2000/svg" viewBox="0 0 700 700">
  <title>bucketlist</title>
  <path d="M581.07,364.53c-24.62-48.66-53-93.68-67.45-115.9a280.24,280.24,0,0,0,43.63-16.57l-9.58,44.17A16.17,16.17,0,0,0,560,295.47a15.61,15.61,0,0,0,3.44.37,16.17,16.17,0,0,0,15.79-12.74l16.82-77.51c12.1-12.21,18.25-25.26,18.25-38.28,0-50.66-92.64-101.93-269.69-101.93S75,116.65,75,167.31c0,12.9,6,25.85,18,38a16.84,16.84,0,0,0,.3,2.61l79.05,361.8a16.33,16.33,0,0,0,4.14,7.75c26.13,27.14,89,56.31,166.18,57.14.27,0,.53,0,.78,0H346c.26,0,.51,0,.76,0,77.15-.83,140.07-30,166.17-57.14a15.89,15.89,0,0,0,4.15-7.78l8.41-38.7c15.53,16.11,30.22,22.13,40.9,24.14a53,53,0,0,0,9.79.92,47.33,47.33,0,0,0,27.28-8.43c34.94-24.47,27.64-84.34-22.34-183.09ZM170.55,122c46.26-15.65,108.09-24.26,174.09-24.26C489.53,97.73,582,138.94,582,167.31c0,4.9-3.29,11.26-11,18.2-.41.34-.82.66-1.2,1-9.81,8.43-26.1,17.63-51.07,26.08-46.26,15.66-108.09,24.27-174.08,24.27-144.91,0-237.36-41.22-237.36-69.58,0-11,16.56-29.54,63.26-45.33ZM584.86,521.11c-3.42,2.4-7.65,3.15-12.54,2.23-6.69-1.26-20.27-6.87-35.88-30.29a16.09,16.09,0,0,0-2.19-2.63l17.8-82a16.16,16.16,0,1,0-31.59-6.86L486.48,558c-20.25,18.15-73,43.92-141.83,44.25C275.76,602,223.06,576.18,202.81,558l-71.29-326.2c45,22.13,116.46,37.43,213.13,37.43,52.82,0,98.06-4.59,135.63-12.34C576.18,398.3,609.38,504,584.86,521.11Z" fill="#fff" stroke="#000" stroke-miterlimit="10"/>
  <path d="M230.21,375.79a16.06,16.06,0,0,0,1.69.08,16.26,16.26,0,0,0,10.66-4l51.75-45.28A16.18,16.18,0,0,0,273,302.25l-38.61,33.8-8.95-11.91a16.17,16.17,0,1,0-25.87,19.4L219,369.4a16.19,16.19,0,0,0,11.24,6.39Z" fill="#fff" stroke="#000" stroke-miterlimit="10"/>
  <path d="M236.68,466.36c.57.05,1.12.09,1.68.09a16.2,16.2,0,0,0,10.66-4l51.75-45.29a16.17,16.17,0,1,0-21.31-24.33l-38.61,33.8-8.95-11.92A16.17,16.17,0,1,0,206,434.11L225.43,460a16.23,16.23,0,0,0,11.25,6.38Z" fill="#fff" stroke="#000" stroke-miterlimit="10"/>
  <path d="M292.41,476.91l-38.63,33.78-8.94-11.92A16.17,16.17,0,0,0,219,518.17l19.4,25.89a16.24,16.24,0,0,0,11.27,6.38,15.43,15.43,0,0,0,1.67.1,16.17,16.17,0,0,0,10.65-4l51.75-45.28a16.17,16.17,0,0,0-21.29-24.34Z" fill="#fff" stroke="#000" stroke-miterlimit="10"/>
  <path d="M438.88,402.88c-47.52,20.79-89.77,11.8-90.56,11.8a16.17,16.17,0,0,0,0,32.34,193.32,193.32,0,0,0,103.51-14.49,16.18,16.18,0,0,0-13-29.65Z" fill="#fff" stroke="#000" stroke-miterlimit="10"/>
  <path d="M445.35,320.41c-47.82,20.92-96.55,11.8-97,11.8a16.17,16.17,0,1,0,0,32.34c2.25,0,55.75,9.23,110-14.51a16.17,16.17,0,0,0-13-29.63Z" fill="#fff" stroke="#000" stroke-miterlimit="10"/>
  <path d="M432.4,490.41c-47.34,20.72-83.39,11.8-84.11,11.81a16.16,16.16,0,0,0,0,32.32c1.72,0,42.81,9.23,97-14.49a16.18,16.18,0,1,0-13-29.64Z" fill="#fff" stroke="#000" stroke-miterlimit="10"/>
</svg>
