<svg id="Layer_1" data-name="Layer 1" xmlns="http://www.w3.org/2000/svg" xmlns:xlink="http://www.w3.org/1999/xlink" viewBox="0 0 499.14 499.14">
  <defs>
    <clipPath id="clip-path" transform="translate(-0.86 -0.86)">
      <path d="M.86,250.43C.86,388.26,112.59,500,250.43,500S500,388.26,500,250.43,388.26.86,250.43.86.86,112.59.86,250.43" fill="none"/>
    </clipPath>
    <linearGradient id="linear-gradient" y1="500" x2="1" y2="500" gradientTransform="matrix(0, -499.14, -499.14, 0, 249821.33, 499.14)" gradientUnits="userSpaceOnUse">
      <stop offset="0" stop-color="#0b1117"/>
      <stop offset="0.53" stop-color="#052469"/>
      <stop offset="1" stop-color="#0093e9"/>
    </linearGradient>
    <clipPath id="clip-path-2" transform="translate(-0.86 -0.86)">
      <rect width="500" height="500" fill="none"/>
    </clipPath>
  </defs>
  <title>logo</title>
  <g clip-path="url(#clip-path)">
    <rect width="499.14" height="499.14" fill="url(#linear-gradient)"/>
  </g>
  <g clip-path="url(#clip-path-2)">
    <path d="M158.47,344.65,170.93,350a213,213,0,0,0,168.27,0l12.6-5.41a4.83,4.83,0,0,0,2.91-4.45l-.14-21.27-97,41.73a6.21,6.21,0,0,1-4.93,0l-97-41.73-.07,21.25a4.92,4.92,0,0,0,3,4.53" transform="translate(-0.86 -0.86)" fill="#fff"/>
  </g>
  <g clip-path="url(#clip-path-2)">
    <path d="M74.61,202.35a.74.74,0,0,0,.32,1.37l26,2.59a.59.59,0,0,1,.3,1.09L76.46,224,46.15,222.6a3.93,3.93,0,0,0-2.36.65l-7.45,4.95a2,2,0,0,0,.93,3.66l15.79,1.36a34,34,0,0,0,22.07-5.78L233.34,119.58a1.49,1.49,0,0,0-.58-2.7l-20-3.52a6.18,6.18,0,0,0-4.81.88l-8.1,5.37,26.67,1.19a.6.6,0,0,1,.31,1.1l-24.8,16.54-26.9-1.2a5.25,5.25,0,0,0-3.15.88l-11.76,7.8a.53.53,0,0,0,.27,1l26.19,1.17a.59.59,0,0,1,.3,1.09l-24.8,16.55L134,164.45a4.69,4.69,0,0,0-2.84.79l-14.46,9.6a.79.79,0,0,0,.4,1.45l25.56,1.14a.6.6,0,0,1,.31,1.09l-24.8,16.55-28.7-1.28a3.77,3.77,0,0,0-2.26.62Z" transform="translate(-0.86 -0.86)" fill="#fff"/>
    <path d="M458.78,240.5,258.52,154.39a6.19,6.19,0,0,0-2.81-.46l-185,79.16A8,8,0,0,0,67,236.92L64,244.07a5.23,5.23,0,0,0,2.77,6.79l187.76,80.73a3.8,3.8,0,0,0,3,0l123-52.88-.93,54.45,11.71-4.76a2.93,2.93,0,0,0,1.82-2.66l.9-52.83,64.71-27.83a2.49,2.49,0,0,0,0-4.58m-335.5-27.37-16.2,26a3.15,3.15,0,0,1-1.46,1.24L80,251.22a.89.89,0,0,1-1.1-1.29l15.26-24.49Zm46.06-19.42-16.2,26a3.23,3.23,0,0,1-1.46,1.25l-26.55,11.21a.58.58,0,0,1-.72-.84L140.18,206Zm27.52,7.51-26.55,11.21a.58.58,0,0,1-.72-.84l15.77-25.32L214.52,174l-16.2,26a3.23,3.23,0,0,1-1.46,1.25m61.7-46.14-16.2,26a3.18,3.18,0,0,1-1.45,1.24l-26.56,11.21a.58.58,0,0,1-.72-.84l15.77-25.32Z" transform="translate(-0.86 -0.86)" fill="#fff"/>
    <path d="M61.37,241.26c0,2.32-2.81,4.19-6.29,4.19s-6.29-1.87-6.29-4.19,2.82-4.2,6.29-4.2,6.29,1.88,6.29,4.2" transform="translate(-0.86 -0.86)" fill="#fff"/>
  </g>
</svg>
